
<svg xmlns="http://www.w3.org/2000/svg" width="24" height="24" viewBox="0 0 24 24" fill="none" stroke="#2e7d32" stroke-width="2" stroke-linecap="round" stroke-linejoin="round">
  <path d="M12 2a10 10 0 1 0 10 10 10 10 0 0 0-10-10Z"/>
  <path d="M12 12a3 3 0 0 0-3 3c0 1.5 1.5 3 3 5 1.5-2 3-3.5 3-5a3 3 0 0 0-3-3Z"/>
  <path d="M19 9a1 1 0 0 0 0-2 1 1 0 0 0 0 2Z"/>
  <path d="M15 9a1 1 0 0 0 0-2 1 1 0 0 0 0 2Z"/>
  <path d="M12 8a1 1 0 0 0 0-2 1 1 0 0 0 0 2Z"/>
  <path d="M9 9a1 1 0 0 0 0-2 1 1 0 0 0 0 2Z"/>
  <path d="M7 12a1 1 0 0 0-2 0 1 1 0 0 0 2 0Z"/>
  <path d="M19 12a1 1 0 0 0-2 0 1 1 0 0 0 2 0Z"/>
  <path d="M16 15a1 1 0 0 0-2 0 1 1 0 0 0 2 0Z"/>
  <path d="M8 15a1 1 0 0 0-2 0 1 1 0 0 0 2 0Z"/>
</svg>
